<svg xmlns="http://www.w3.org/2000/svg" version="1.1" xmlns:xlink="http://www.w3.org/1999/xlink" xmlns:svgjs="http://svgjs.com/svgjs" width="1452" height="560" preserveAspectRatio="none" viewBox="0 0 1452 560"><g mask="url(&quot;#SvgjsMask1107&quot;)" fill="none"><rect width="1452" height="560" x="0" y="0" fill="rgba(61, 181, 237, 1)"></rect><path d="M0,618.023C113.212,643.978,241.133,582.523,318.95,496.296C393.017,414.224,345.267,279.126,394.964,180.374C447.872,75.24,606.517,29.367,613.07,-88.146C619.463,-202.791,504.502,-285.367,425.587,-368.774C349.753,-448.925,271.349,-532.541,164.951,-561.772C59.371,-590.778,-51.634,-564.06,-155.127,-528.315C-254.949,-493.838,-359.296,-449.682,-416.539,-360.933C-471.498,-275.725,-460.841,-166.398,-453.804,-65.247C-447.904,19.552,-417.353,97.206,-379.376,173.255C-342.608,246.882,-290.442,306.219,-237.034,368.832C-161.099,457.856,-114.051,591.876,0,618.023" fill="#15a3e5"></path><path d="M1452 1085.1680000000001C1547.539 1069.633 1609.208 981.2919999999999 1681.087 916.466 1741.498 861.983 1797.328 806.663 1838.561 736.537 1883.8 659.599 1934.401 580.297 1931.1970000000001 491.102 1927.8519999999999 397.98199999999997 1874.024 316.926 1820.741 240.48399999999998 1762.254 156.575 1709.434 42.85799999999995 1608.266 27.807000000000016 1505.444 12.509999999999991 1437.818 142.97500000000002 1337.052 168.524 1229.872 195.699 1099.702 111.30399999999997 1012.2239999999999 178.93200000000002 926.871 244.918 943.611 377.90999999999997 928.109 484.676 912.584 591.595 875.884 704.336 921.73 802.1659999999999 967.469 899.7660000000001 1074.356 948.912 1169.4470000000001 999.6610000000001 1258.055 1046.95 1352.865 1101.288 1452 1085.1680000000001" fill="#69c6f1"></path></g><defs><mask id="SvgjsMask1107"><rect width="1452" height="560" fill="#ffffff"></rect></mask></defs></svg>