<svg xmlns="http://www.w3.org/2000/svg" version="1.1" xmlns:xlink="http://www.w3.org/1999/xlink" xmlns:svgjs="http://svgjs.com/svgjs" width="1452" height="560" preserveAspectRatio="none" viewBox="0 0 1452 560"><g mask="url(&quot;#SvgjsMask1013&quot;)" fill="none"><rect width="1452" height="560" x="0" y="0" fill="rgba(115, 201, 241, 1)"></rect><path d="M0,627.274C114.803,610.243,168.656,477.081,265.38,412.939C360.094,350.13,504.034,354.639,560.151,255.813C616.337,156.866,578.034,30.413,544.301,-78.259C514.063,-175.674,448.237,-253.513,378.846,-328.272C311.613,-400.707,236.7,-460.823,148.263,-504.938C44.293,-556.801,-70.085,-649.218,-177.941,-606.012C-287.784,-562.01,-273.631,-393.673,-351.628,-304.688C-430.346,-214.88,-598.383,-205.774,-629.758,-90.545C-660.518,22.423,-550.511,122.878,-496.306,226.655C-445.187,324.525,-407.233,430.623,-321.315,499.976C-229.818,573.833,-116.313,644.529,0,627.274" fill="#53bdee"></path><path d="M1452 915.1510000000001C1526.747 915.3299999999999 1604.787 935.36 1671.255 901.1669999999999 1740.098 865.752 1794.117 800.75 1817.712 727.015 1840.2730000000001 656.514 1805.683 583.924 1796.268 510.502 1786.675 435.692 1800.0810000000001 356.524 1761.865 291.5 1720.182 220.577 1653.027 166.27300000000002 1576.386 136.37900000000002 1495.873 104.97500000000002 1399.367 80.03899999999999 1322.886 120.279 1247.0529999999999 160.178 1253.45 274.662 1194.81 337.144 1132.22 403.834 1004.642 404.971 974.6179999999999 491.363 945.283 575.771 1006.4259999999999 666.157 1054.228 741.657 1097.763 810.418 1158.821 867.5830000000001 1233.4180000000001 900.12 1301.744 929.921 1377.458 914.973 1452 915.1510000000001" fill="#93d6f4"></path></g><defs><mask id="SvgjsMask1013"><rect width="1452" height="560" fill="#ffffff"></rect></mask></defs></svg>